<?xml version="1.0" standalone="no"?>
<!DOCTYPE svg PUBLIC "-//W3C//DTD SVG 1.1//EN"
   "http://www.w3.org/Graphics/SVG/1.1/DTD/svg11.dtd">
<svg width="905.131" height="559" version="1.1"
   xmlns="http://www.w3.org/2000/svg"
   xmlns:xlink="http://www.w3.org/1999/xlink">
<defs>
<path id="bottoms" d="M 0 0 l 18 31.1769 m 36 0 l 18 -31.1769 m 36 0 l 18 31.1769 m 36 0 l 18 -31.1769 m 36 0 l 18 31.1769 m 36 0 l 18 -31.1769 m 36 0 l 18 31.1769 m 36 0 l 18 -31.1769 m 36 0 l 18 31.1769 m 36 0" />
<path id="tops" d="M 0 0 l 36 0 18 -31.1769 36 0 18 31.1769 36 0 18 -31.1769 36 0 18 31.1769 36 0 18 -31.1769 36 0 18 31.1769 36 0 18 -31.1769 36 0 18 31.1769 36 0 18 -31.1769 36 0" />
<path id="outline" d="M 0 0 l 36 0 18 -31.1769 36 0 18 31.1769 36 0 18 -31.1769 36 0 18 31.1769 36 0 18 -31.1769 36 0 18 31.1769 36 0 18 -31.1769 36 0 18 31.1769 36 0 18 -31.1769 36 0 18 31.1769 -18 31.1769 18 31.1769 -18 31.1769 18 31.1769 -18 31.1769 18 31.1769 -18 31.1769 18 31.1769 -18 31.1769 18 31.1769 -18 31.1769 18 31.1769 -18 31.1769 18 31.1769 -18 31.1769 18 31.1769 -18 31.1769 18 31.1769 -18 31.1769 18 31.1769 -18 31.1769 18 31.1769 -18 31.1769 18 31.1769 -18 31.1769 18 31.1769 -18 31.1769 -36 0 -18 31.1769 -36 0 -18 -31.1769 -36 0 -18 31.1769 -36 0 -18 -31.1769 -36 0 -18 31.1769 -36 0 -18 -31.1769 -36 0 -18 31.1769 -36 0 -18 -31.1769 -36 0 -18 31.1769 -36 0 -18 -31.1769 18 -31.1769 -18 -31.1769 18 -31.1769 -18 -31.1769 18 -31.1769 -18 -31.1769 18 -31.1769 -18 -31.1769 18 -31.1769 -18 -31.1769 18 -31.1769 -18 -31.1769 18 -31.1769 -18 -31.1769 18 -31.1769 -18 -31.1769 18 -31.1769 -18 -31.1769 18 -31.1769 -18 -31.1769 18 -31.1769 -18 -31.1769 18 -31.1769 -18 -31.1769 18 -31.1769 -18 -31.1769 z" />
</defs>
<g transform="translate(905.131,0.5) rotate(90)">
<g id="grid" style="fill: none; stroke: #000000; stroke-opacity: 1; stroke-width: 1; ">
<use x="18" y="31.1769" xlink:href="#outline" />
<use x="54" y="31.1769" xlink:href="#bottoms" />
<use x="18" y="93.5307" xlink:href="#tops" />
<use x="54" y="93.5307" xlink:href="#bottoms" />
<use x="18" y="155.885" xlink:href="#tops" />
<use x="54" y="155.885" xlink:href="#bottoms" />
<use x="18" y="218.238" xlink:href="#tops" />
<use x="54" y="218.238" xlink:href="#bottoms" />
<use x="18" y="280.592" xlink:href="#tops" />
<use x="54" y="280.592" xlink:href="#bottoms" />
<use x="18" y="342.946" xlink:href="#tops" />
<use x="54" y="342.946" xlink:href="#bottoms" />
<use x="18" y="405.3" xlink:href="#tops" />
<use x="54" y="405.3" xlink:href="#bottoms" />
<use x="18" y="467.654" xlink:href="#tops" />
<use x="54" y="467.654" xlink:href="#bottoms" />
<use x="18" y="530.008" xlink:href="#tops" />
<use x="54" y="530.008" xlink:href="#bottoms" />
<use x="18" y="592.361" xlink:href="#tops" />
<use x="54" y="592.361" xlink:href="#bottoms" />
<use x="18" y="654.715" xlink:href="#tops" />
<use x="54" y="654.715" xlink:href="#bottoms" />
<use x="18" y="717.069" xlink:href="#tops" />
<use x="54" y="717.069" xlink:href="#bottoms" />
<use x="18" y="779.423" xlink:href="#tops" />
<use x="54" y="779.423" xlink:href="#bottoms" />
<use x="18" y="841.777" xlink:href="#tops" />
<use x="54" y="841.777" xlink:href="#bottoms" />
</g>
<g id="coordinates" style="fill: #000000; fill-opacity: 1; font-family: Iosevka; font-size: 8px; text-anchor: middle; ">
<text x="13.3423" y="72.9193" transform="rotate(-120 13.3423 72.9193)">0114</text>
<text x="67.3423" y="41.7424" transform="rotate(-120 67.3423 41.7424)">0214</text>
<text x="121.342" y="72.9193" transform="rotate(-120 121.342 72.9193)">0314</text>
<text x="175.342" y="41.7424" transform="rotate(-120 175.342 41.7424)">0414</text>
<text x="229.342" y="72.9193" transform="rotate(-120 229.342 72.9193)">0514</text>
<text x="283.342" y="41.7424" transform="rotate(-120 283.342 41.7424)">0614</text>
<text x="337.342" y="72.9193" transform="rotate(-120 337.342 72.9193)">0714</text>
<text x="391.342" y="41.7424" transform="rotate(-120 391.342 41.7424)">0814</text>
<text x="445.342" y="72.9193" transform="rotate(-120 445.342 72.9193)">0914</text>
<text x="499.342" y="41.7424" transform="rotate(-120 499.342 41.7424)">1014</text>
<text x="13.3423" y="135.273" transform="rotate(-120 13.3423 135.273)">0113</text>
<text x="67.3423" y="104.096" transform="rotate(-120 67.3423 104.096)">0213</text>
<text x="121.342" y="135.273" transform="rotate(-120 121.342 135.273)">0313</text>
<text x="175.342" y="104.096" transform="rotate(-120 175.342 104.096)">0413</text>
<text x="229.342" y="135.273" transform="rotate(-120 229.342 135.273)">0513</text>
<text x="283.342" y="104.096" transform="rotate(-120 283.342 104.096)">0613</text>
<text x="337.342" y="135.273" transform="rotate(-120 337.342 135.273)">0713</text>
<text x="391.342" y="104.096" transform="rotate(-120 391.342 104.096)">0813</text>
<text x="445.342" y="135.273" transform="rotate(-120 445.342 135.273)">0913</text>
<text x="499.342" y="104.096" transform="rotate(-120 499.342 104.096)">1013</text>
<text x="13.3423" y="197.627" transform="rotate(-120 13.3423 197.627)">0112</text>
<text x="67.3423" y="166.45" transform="rotate(-120 67.3423 166.45)">0212</text>
<text x="121.342" y="197.627" transform="rotate(-120 121.342 197.627)">0312</text>
<text x="175.342" y="166.45" transform="rotate(-120 175.342 166.45)">0412</text>
<text x="229.342" y="197.627" transform="rotate(-120 229.342 197.627)">0512</text>
<text x="283.342" y="166.45" transform="rotate(-120 283.342 166.45)">0612</text>
<text x="337.342" y="197.627" transform="rotate(-120 337.342 197.627)">0712</text>
<text x="391.342" y="166.45" transform="rotate(-120 391.342 166.45)">0812</text>
<text x="445.342" y="197.627" transform="rotate(-120 445.342 197.627)">0912</text>
<text x="499.342" y="166.45" transform="rotate(-120 499.342 166.45)">1012</text>
<text x="13.3423" y="259.981" transform="rotate(-120 13.3423 259.981)">0111</text>
<text x="67.3423" y="228.804" transform="rotate(-120 67.3423 228.804)">0211</text>
<text x="121.342" y="259.981" transform="rotate(-120 121.342 259.981)">0311</text>
<text x="175.342" y="228.804" transform="rotate(-120 175.342 228.804)">0411</text>
<text x="229.342" y="259.981" transform="rotate(-120 229.342 259.981)">0511</text>
<text x="283.342" y="228.804" transform="rotate(-120 283.342 228.804)">0611</text>
<text x="337.342" y="259.981" transform="rotate(-120 337.342 259.981)">0711</text>
<text x="391.342" y="228.804" transform="rotate(-120 391.342 228.804)">0811</text>
<text x="445.342" y="259.981" transform="rotate(-120 445.342 259.981)">0911</text>
<text x="499.342" y="228.804" transform="rotate(-120 499.342 228.804)">1011</text>
<text x="13.3423" y="322.335" transform="rotate(-120 13.3423 322.335)">0110</text>
<text x="67.3423" y="291.158" transform="rotate(-120 67.3423 291.158)">0210</text>
<text x="121.342" y="322.335" transform="rotate(-120 121.342 322.335)">0310</text>
<text x="175.342" y="291.158" transform="rotate(-120 175.342 291.158)">0410</text>
<text x="229.342" y="322.335" transform="rotate(-120 229.342 322.335)">0510</text>
<text x="283.342" y="291.158" transform="rotate(-120 283.342 291.158)">0610</text>
<text x="337.342" y="322.335" transform="rotate(-120 337.342 322.335)">0710</text>
<text x="391.342" y="291.158" transform="rotate(-120 391.342 291.158)">0810</text>
<text x="445.342" y="322.335" transform="rotate(-120 445.342 322.335)">0910</text>
<text x="499.342" y="291.158" transform="rotate(-120 499.342 291.158)">1010</text>
<text x="13.3423" y="384.688" transform="rotate(-120 13.3423 384.688)">0109</text>
<text x="67.3423" y="353.512" transform="rotate(-120 67.3423 353.512)">0209</text>
<text x="121.342" y="384.688" transform="rotate(-120 121.342 384.688)">0309</text>
<text x="175.342" y="353.512" transform="rotate(-120 175.342 353.512)">0409</text>
<text x="229.342" y="384.688" transform="rotate(-120 229.342 384.688)">0509</text>
<text x="283.342" y="353.512" transform="rotate(-120 283.342 353.512)">0609</text>
<text x="337.342" y="384.688" transform="rotate(-120 337.342 384.688)">0709</text>
<text x="391.342" y="353.512" transform="rotate(-120 391.342 353.512)">0809</text>
<text x="445.342" y="384.688" transform="rotate(-120 445.342 384.688)">0909</text>
<text x="499.342" y="353.512" transform="rotate(-120 499.342 353.512)">1009</text>
<text x="13.3423" y="447.042" transform="rotate(-120 13.3423 447.042)">0108</text>
<text x="67.3423" y="415.865" transform="rotate(-120 67.3423 415.865)">0208</text>
<text x="121.342" y="447.042" transform="rotate(-120 121.342 447.042)">0308</text>
<text x="175.342" y="415.865" transform="rotate(-120 175.342 415.865)">0408</text>
<text x="229.342" y="447.042" transform="rotate(-120 229.342 447.042)">0508</text>
<text x="283.342" y="415.865" transform="rotate(-120 283.342 415.865)">0608</text>
<text x="337.342" y="447.042" transform="rotate(-120 337.342 447.042)">0708</text>
<text x="391.342" y="415.865" transform="rotate(-120 391.342 415.865)">0808</text>
<text x="445.342" y="447.042" transform="rotate(-120 445.342 447.042)">0908</text>
<text x="499.342" y="415.865" transform="rotate(-120 499.342 415.865)">1008</text>
<text x="13.3423" y="509.396" transform="rotate(-120 13.3423 509.396)">0107</text>
<text x="67.3423" y="478.219" transform="rotate(-120 67.3423 478.219)">0207</text>
<text x="121.342" y="509.396" transform="rotate(-120 121.342 509.396)">0307</text>
<text x="175.342" y="478.219" transform="rotate(-120 175.342 478.219)">0407</text>
<text x="229.342" y="509.396" transform="rotate(-120 229.342 509.396)">0507</text>
<text x="283.342" y="478.219" transform="rotate(-120 283.342 478.219)">0607</text>
<text x="337.342" y="509.396" transform="rotate(-120 337.342 509.396)">0707</text>
<text x="391.342" y="478.219" transform="rotate(-120 391.342 478.219)">0807</text>
<text x="445.342" y="509.396" transform="rotate(-120 445.342 509.396)">0907</text>
<text x="499.342" y="478.219" transform="rotate(-120 499.342 478.219)">1007</text>
<text x="13.3423" y="571.75" transform="rotate(-120 13.3423 571.75)">0106</text>
<text x="67.3423" y="540.573" transform="rotate(-120 67.3423 540.573)">0206</text>
<text x="121.342" y="571.75" transform="rotate(-120 121.342 571.75)">0306</text>
<text x="175.342" y="540.573" transform="rotate(-120 175.342 540.573)">0406</text>
<text x="229.342" y="571.75" transform="rotate(-120 229.342 571.75)">0506</text>
<text x="283.342" y="540.573" transform="rotate(-120 283.342 540.573)">0606</text>
<text x="337.342" y="571.75" transform="rotate(-120 337.342 571.75)">0706</text>
<text x="391.342" y="540.573" transform="rotate(-120 391.342 540.573)">0806</text>
<text x="445.342" y="571.75" transform="rotate(-120 445.342 571.75)">0906</text>
<text x="499.342" y="540.573" transform="rotate(-120 499.342 540.573)">1006</text>
<text x="13.3423" y="634.104" transform="rotate(-120 13.3423 634.104)">0105</text>
<text x="67.3423" y="602.927" transform="rotate(-120 67.3423 602.927)">0205</text>
<text x="121.342" y="634.104" transform="rotate(-120 121.342 634.104)">0305</text>
<text x="175.342" y="602.927" transform="rotate(-120 175.342 602.927)">0405</text>
<text x="229.342" y="634.104" transform="rotate(-120 229.342 634.104)">0505</text>
<text x="283.342" y="602.927" transform="rotate(-120 283.342 602.927)">0605</text>
<text x="337.342" y="634.104" transform="rotate(-120 337.342 634.104)">0705</text>
<text x="391.342" y="602.927" transform="rotate(-120 391.342 602.927)">0805</text>
<text x="445.342" y="634.104" transform="rotate(-120 445.342 634.104)">0905</text>
<text x="499.342" y="602.927" transform="rotate(-120 499.342 602.927)">1005</text>
<text x="13.3423" y="696.458" transform="rotate(-120 13.3423 696.458)">0104</text>
<text x="67.3423" y="665.281" transform="rotate(-120 67.3423 665.281)">0204</text>
<text x="121.342" y="696.458" transform="rotate(-120 121.342 696.458)">0304</text>
<text x="175.342" y="665.281" transform="rotate(-120 175.342 665.281)">0404</text>
<text x="229.342" y="696.458" transform="rotate(-120 229.342 696.458)">0504</text>
<text x="283.342" y="665.281" transform="rotate(-120 283.342 665.281)">0604</text>
<text x="337.342" y="696.458" transform="rotate(-120 337.342 696.458)">0704</text>
<text x="391.342" y="665.281" transform="rotate(-120 391.342 665.281)">0804</text>
<text x="445.342" y="696.458" transform="rotate(-120 445.342 696.458)">0904</text>
<text x="499.342" y="665.281" transform="rotate(-120 499.342 665.281)">1004</text>
<text x="13.3423" y="758.811" transform="rotate(-120 13.3423 758.811)">0103</text>
<text x="67.3423" y="727.634" transform="rotate(-120 67.3423 727.634)">0203</text>
<text x="121.342" y="758.811" transform="rotate(-120 121.342 758.811)">0303</text>
<text x="175.342" y="727.634" transform="rotate(-120 175.342 727.634)">0403</text>
<text x="229.342" y="758.811" transform="rotate(-120 229.342 758.811)">0503</text>
<text x="283.342" y="727.634" transform="rotate(-120 283.342 727.634)">0603</text>
<text x="337.342" y="758.811" transform="rotate(-120 337.342 758.811)">0703</text>
<text x="391.342" y="727.634" transform="rotate(-120 391.342 727.634)">0803</text>
<text x="445.342" y="758.811" transform="rotate(-120 445.342 758.811)">0903</text>
<text x="499.342" y="727.634" transform="rotate(-120 499.342 727.634)">1003</text>
<text x="13.3423" y="821.165" transform="rotate(-120 13.3423 821.165)">0102</text>
<text x="67.3423" y="789.988" transform="rotate(-120 67.3423 789.988)">0202</text>
<text x="121.342" y="821.165" transform="rotate(-120 121.342 821.165)">0302</text>
<text x="175.342" y="789.988" transform="rotate(-120 175.342 789.988)">0402</text>
<text x="229.342" y="821.165" transform="rotate(-120 229.342 821.165)">0502</text>
<text x="283.342" y="789.988" transform="rotate(-120 283.342 789.988)">0602</text>
<text x="337.342" y="821.165" transform="rotate(-120 337.342 821.165)">0702</text>
<text x="391.342" y="789.988" transform="rotate(-120 391.342 789.988)">0802</text>
<text x="445.342" y="821.165" transform="rotate(-120 445.342 821.165)">0902</text>
<text x="499.342" y="789.988" transform="rotate(-120 499.342 789.988)">1002</text>
<text x="13.3423" y="883.519" transform="rotate(-120 13.3423 883.519)">0101</text>
<text x="67.3423" y="852.342" transform="rotate(-120 67.3423 852.342)">0201</text>
<text x="121.342" y="883.519" transform="rotate(-120 121.342 883.519)">0301</text>
<text x="175.342" y="852.342" transform="rotate(-120 175.342 852.342)">0401</text>
<text x="229.342" y="883.519" transform="rotate(-120 229.342 883.519)">0501</text>
<text x="283.342" y="852.342" transform="rotate(-120 283.342 852.342)">0601</text>
<text x="337.342" y="883.519" transform="rotate(-120 337.342 883.519)">0701</text>
<text x="391.342" y="852.342" transform="rotate(-120 391.342 852.342)">0801</text>
<text x="445.342" y="883.519" transform="rotate(-120 445.342 883.519)">0901</text>
<text x="499.342" y="852.342" transform="rotate(-120 499.342 852.342)">1001</text>
</g>
</g>
</svg>
